HIERARCHY
ROOT root
{
	OFFSET 0.000000 0.000000 0.000000
	CHANNELS 6 Xposition Yposition Zposition Zrotation Yrotation Xrotation
	JOINT lhip
	{
		OFFSET 0.058581 -0.082280 -0.017664
		CHANNELS 3 Zrotation Yrotation Xrotation
		JOINT lknee
		{
			OFFSET 0.043451 -0.386469 0.008037
			CHANNELS 3 Zrotation Yrotation Xrotation
			JOINT lankle
			{
				OFFSET -0.014790 -0.426874 -0.037428
				CHANNELS 3 Zrotation Yrotation Xrotation
				JOINT ltoe
				{
					OFFSET 0.041054 -0.060286 0.122042
					CHANNELS 3 Zrotation Yrotation Xrotation
					End Site
					{
						OFFSET 0.000000 0.000000 0.000000
					}
				}
			}
		}
	}
	JOINT rhip
	{
		OFFSET -0.060310 -0.090513 -0.013543
		CHANNELS 3 Zrotation Yrotation Xrotation
		JOINT rknee
		{
			OFFSET -0.043257 -0.383688 -0.004843
			CHANNELS 3 Zrotation Yrotation Xrotation
			JOINT rankle
			{
				OFFSET 0.019056 -0.420046 -0.034562
				CHANNELS 3 Zrotation Yrotation Xrotation
				JOINT rtoe
				{
					OFFSET -0.034840 -0.062106 0.130323
					CHANNELS 3 Zrotation Yrotation Xrotation
					End Site
					{
						OFFSET 0.000000 0.000000 0.000000
					}
				}
			}
		}
	}
	JOINT lowerback
	{
		OFFSET 0.004439 0.124404 -0.038385
		CHANNELS 3 Zrotation Yrotation Xrotation
		JOINT upperback
		{
			OFFSET 0.004488 0.137956 0.026820
			CHANNELS 3 Zrotation Yrotation Xrotation
			JOINT chest
			{
				OFFSET -0.002265 0.056032 0.002855
				CHANNELS 3 Zrotation Yrotation Xrotation
				JOINT lowerneck
				{
					OFFSET -0.013390 0.211636 -0.033468
					CHANNELS 3 Zrotation Yrotation Xrotation
					JOINT upperneck
					{
						OFFSET 0.010113 0.088937 0.050410
						CHANNELS 3 Zrotation Yrotation Xrotation
						End Site
						{
							OFFSET 0.000000 0.000000 0.000000
						}
					}
				}
				JOINT lclavicle
				{
					OFFSET 0.071702 0.114000 -0.018898
					CHANNELS 3 Zrotation Yrotation Xrotation
					JOINT lshoulder
					{
						OFFSET 0.122921 0.045205 -0.019046
						CHANNELS 3 Zrotation Yrotation Xrotation
						JOINT lelbow
						{
							OFFSET 0.255332 -0.015649 -0.022946
							CHANNELS 3 Zrotation Yrotation Xrotation
							JOINT lwrist
							{
								OFFSET 0.265709 0.012698 -0.007375
								CHANNELS 3 Zrotation Yrotation Xrotation
								End Site
								{
									OFFSET 0.000000 0.000000 0.000000
								}
							}
						}
					}
				}
				JOINT rclavicle
				{
					OFFSET -0.082954 0.112472 -0.023707
					CHANNELS 3 Zrotation Yrotation Xrotation
					JOINT rshoulder
					{
						OFFSET -0.113228 0.046853 -0.008472
						CHANNELS 3 Zrotation Yrotation Xrotation
						JOINT relbow
						{
							OFFSET -0.260127 -0.014369 -0.031269
							CHANNELS 3 Zrotation Yrotation Xrotation
							JOINT rwrist
							{
								OFFSET -0.269108 0.006794 -0.006027
								CHANNELS 3 Zrotation Yrotation Xrotation
								End Site
								{
									OFFSET 0.000000 0.000000 0.000000
								}
							}
						}
					}
				}
			}
		}
	}
}
MOTION
Frames: 15
Frame Time: 0.033333
0.054846 0.859105 0.582791 49.447219 0.652128 65.879805 16.903577 -3.264826 -72.572256 5.364793 16.659310 123.831789 1.752690 -5.601670 -23.658923 0.000000 -0.000000 0.000000 -16.239162 -3.752348 -65.095441 -10.864069 -15.478830 117.832473 -0.006608 8.329884 -16.348386 0.000000 -0.000000 0.000000 9.149778 6.423084 58.482751 12.336230 4.253934 7.937299 9.393728 7.680571 -4.723616 -2.310857 1.031191 -0.274983 -2.076763 -1.175432 -5.353360 -16.161718 -33.517747 0.531560 -68.670600 -21.462615 8.500632 76.207278 -76.967446 -48.182519 -32.729110 -11.912379 -0.428238 21.255114 46.417185 10.246825 60.414143 50.863480 9.838248 -149.786353 50.935124 -133.633657 35.058548 37.235893 -44.470460 
0.055883 0.860136 0.582075 49.452944 0.757865 65.817870 16.856312 -3.371625 -72.581729 5.596449 16.620295 123.904611 1.862548 -5.686317 -23.391112 0.000000 -0.000000 0.000000 -16.628379 -3.965732 -64.962472 -11.003884 -15.741560 117.943548 -0.304258 8.318255 -16.090846 0.000000 -0.000000 0.000000 9.451223 6.561628 58.750603 12.593380 4.191007 8.488621 9.547364 7.704395 -4.744601 -2.309414 0.882239 0.443832 -1.930178 -1.050723 -6.249037 -16.476999 -34.126722 0.799059 -69.062598 -22.330131 8.384446 77.199176 -75.759570 -49.741637 -33.286439 -11.720270 -0.956640 21.581998 46.776353 10.636291 61.903000 50.910729 10.989744 -150.715800 50.382360 -134.010702 35.887326 37.486670 -44.139978 
0.056744 0.860330 0.582372 49.351879 0.891172 66.070306 16.865747 -3.448917 -72.603815 5.812423 16.573153 123.845746 1.903282 -5.814211 -23.484429 0.000000 -0.000000 0.000000 -16.667296 -3.944747 -65.113011 -11.259150 -15.775414 118.052469 -0.498779 8.315076 -16.321338 0.000000 -0.000000 0.000000 9.576229 6.857271 58.423490 13.019983 4.199447 9.244182 9.813293 7.675908 -4.663192 -2.317713 0.773496 1.375623 -1.990697 -1.061138 -7.362789 -16.843304 -34.367849 0.895658 -69.678263 -23.346229 8.606715 77.771279 -74.300595 -51.002599 -35.051876 -10.823343 -2.064480 23.335624 47.065099 11.986877 61.441346 51.761279 11.331474 -150.644120 50.481206 -134.368017 37.716853 38.067024 -44.025292 
0.057441 0.861069 0.583146 49.323043 1.157826 66.189707 16.893752 -3.487671 -72.637795 6.021820 16.273005 123.822591 1.877568 -5.889051 -23.427617 0.000000 -0.000000 0.000000 -16.625725 -3.877887 -65.043056 -11.857045 -15.881557 118.028512 -0.784624 8.055769 -16.377230 0.000000 -0.000000 0.000000 9.870143 6.892495 58.524294 13.118164 4.328525 9.823225 9.947478 8.055842 -4.774028 -2.145334 0.393678 2.025437 -1.672455 -1.103318 -8.129531 -16.846980 -34.819488 0.673996 -70.767606 -23.977226 8.789498 77.953190 -73.427180 -50.787348 -36.724082 -9.800267 -2.244653 23.662820 47.344296 12.564043 62.138693 51.837587 11.517551 -151.289712 49.933279 -134.555484 37.836642 38.530521 -44.974547 
0.058255 0.861693 0.583523 49.611091 1.522856 66.548152 16.831521 -3.740979 -73.071511 6.305043 15.957715 123.811736 2.094358 -5.971909 -23.335973 0.000000 -0.000000 0.000000 -16.650690 -4.116952 -65.183939 -12.158562 -15.904594 118.058257 -1.039701 8.229901 -16.403337 0.000000 -0.000000 0.000000 10.229938 7.025190 58.385938 13.298211 4.406466 9.942380 10.259252 8.256768 -4.788174 -1.938549 -0.096713 2.851134 -1.331767 -0.843498 -8.852255 -16.564490 -35.687766 0.700681 -71.673914 -24.610737 8.907714 78.906161 -72.766420 -51.338858 -38.256393 -8.954808 -2.050529 23.374304 47.968604 13.051318 61.720443 52.257488 10.566720 -151.512430 49.098120 -134.692791 38.358616 39.298707 -45.318424 
0.058788 0.862055 0.583516 49.759709 1.728388 66.555889 16.850847 -3.953683 -73.122185 6.413646 15.892757 123.864958 1.978355 -6.077188 -23.213722 0.000000 -0.000000 0.000000 -16.661745 -4.095730 -65.096890 -12.360530 -15.914611 118.124737 -1.160008 8.160917 -16.535962 0.000000 -0.000000 0.000000 10.401423 7.136785 58.231303 13.587908 4.353463 10.571512 10.389489 8.195990 -4.729951 -1.680675 -0.224975 3.314740 -1.221141 -1.099872 -8.968877 -16.522703 -36.021252 0.507337 -71.831752 -25.235911 9.214903 80.154471 -72.204701 -52.539171 -40.112130 -7.830544 -1.639868 24.399791 48.306896 13.442612 60.425098 53.039845 10.126008 -150.740542 49.335691 -134.484855 39.957731 39.887446 -44.532794 
0.059701 0.862580 0.583232 50.156325 1.939228 66.705120 16.849801 -4.399725 -73.412647 6.652287 15.828181 123.988751 2.131432 -6.138077 -23.095562 0.000000 -0.000000 0.000000 -16.862971 -4.358193 -65.071215 -12.556170 -15.925760 118.273932 -1.227001 8.342292 -16.738381 0.000000 -0.000000 0.000000 10.656763 7.172484 58.119209 13.772868 4.173160 10.853184 10.421347 8.216728 -5.171731 -1.441414 -1.009869 4.763896 -0.501240 -1.125573 -9.620702 -16.885704 -36.732174 1.158422 -71.728206 -25.820449 8.996724 80.946547 -71.717570 -53.206262 -41.698710 -7.008421 -1.265618 24.588758 48.712582 14.336122 59.298420 53.401285 8.814427 -150.273848 49.001963 -133.942551 40.898419 40.335320 -44.332218 
0.060361 0.862898 0.583426 50.374073 2.085519 66.814679 16.805073 -4.500514 -73.473890 6.817149 15.756655 123.976182 2.077831 -6.205697 -22.887880 0.000000 -0.000000 0.000000 -16.964977 -4.344743 -65.118484 -12.655868 -15.919846 118.345026 -1.296326 8.495950 -16.611886 0.000000 -0.000000 0.000000 10.761912 7.207946 58.275601 13.765344 4.185511 11.014181 10.478592 8.281780 -5.318107 -1.415434 -1.356600 5.529306 -0.219326 -0.848640 -9.864809 -17.048498 -37.131031 1.109880 -71.936570 -26.247376 9.108577 80.981936 -71.255528 -53.302162 -43.044304 -6.390564 -1.494274 24.584518 48.958162 14.396684 58.996963 53.429337 8.520926 -149.939249 48.839666 -133.717276 41.391773 40.464256 -44.568683 
0.060778 0.863147 0.583381 50.493354 2.278673 66.949006 16.854500 -4.480029 -73.578118 6.935297 15.648027 123.987842 2.242138 -6.300388 -22.858855 0.000000 -0.000000 0.000000 -16.869615 -4.309570 -65.233071 -12.604117 -15.884607 118.389675 -1.498192 8.822734 -16.662044 0.000000 -0.000000 0.000000 10.903661 7.409881 58.474182 13.749692 4.178796 11.138001 10.528156 8.608821 -5.750769 -0.953828 -2.490849 6.015609 0.668376 -1.472558 -10.211025 -16.886167 -37.994467 1.510989 -72.444930 -26.785386 8.830672 81.262973 -70.661310 -52.987502 -43.823262 -5.872875 -1.850321 24.036520 49.382812 14.988493 58.687727 53.557855 6.893472 -150.396288 48.348543 -133.241850 41.251886 41.264323 -45.710569 
0.061051 0.863530 0.583865 50.670369 2.397369 66.910027 16.781440 -4.582414 -73.466352 7.063462 15.516491 123.946408 2.206038 -6.296920 -22.959466 0.000000 -0.000000 0.000000 -16.846941 -4.247107 -65.106916 -12.630108 -15.887084 118.354804 -1.681883 8.785562 -16.780586 0.000000 -0.000000 0.000000 10.977953 7.333393 58.429219 13.869350 4.059816 11.651997 10.511136 8.486102 -5.763813 -1.107060 -2.763937 6.761741 0.840511 -1.749709 -10.405942 -17.226308 -38.289164 1.423134 -72.071800 -27.281428 8.925843 81.164338 -70.044232 -52.927990 -45.030729 -4.650541 -1.649861 25.017000 49.556043 15.339654 57.966081 53.593067 6.761896 -149.710719 48.699083 -133.150057 41.816118 41.601951 -45.578818 
0.061565 0.863745 0.584178 50.827203 2.556478 66.963566 16.699054 -4.652622 -73.457612 7.124664 15.334842 123.929352 2.135173 -6.383849 -22.834219 0.000000 -0.000000 0.000000 -16.763263 -4.234762 -65.043811 -12.755131 -15.836957 118.341601 -1.762351 8.761640 -16.863240 0.000000 -0.000000 0.000000 11.168157 7.554789 58.472225 13.934363 4.092091 11.932665 10.606922 8.561066 -5.853312 -0.832414 -3.165316 7.024781 1.050813 -1.843831 -10.650996 -16.940660 -38.986976 1.215681 -72.380265 -28.101717 9.031864 80.405037 -69.597286 -51.513696 -46.712654 -3.432514 -1.686145 24.707372 49.822595 15.291386 57.523969 53.634158 6.028240 -149.782153 48.324792 -132.850759 41.907963 42.159785 -46.644983 
0.062278 0.863882 0.584100 51.160780 2.615140 66.956329 16.587586 -4.862431 -73.500245 7.148476 15.380508 123.949436 2.172544 -6.394844 -22.793773 0.000000 -0.000000 0.000000 -16.940901 -4.452346 -64.923754 -12.808814 -15.813531 118.439246 -1.853974 8.917058 -16.933498 0.000000 -0.000000 0.000000 11.314870 7.632939 58.611774 14.071126 3.959759 11.939711 10.595561 8.656875 -5.785934 -0.542274 -3.256583 7.444386 1.025150 -2.304114 -10.604408 -16.593159 -39.666038 0.931804 -72.335203 -28.927487 9.205580 79.034740 -69.269939 -49.382547 -47.901193 -2.890247 -1.529729 24.442647 50.011101 15.411928 58.281870 54.027476 6.146752 -149.460360 48.222506 -131.675866 41.114206 43.157557 -48.616752 
0.062790 0.863807 0.584022 51.381091 2.734460 67.077774 16.383956 -4.991359 -73.694875 7.164661 15.189038 123.953970 2.027802 -6.376748 -22.715370 0.000000 -0.000000 0.000000 -17.023431 -4.620373 -64.919381 -13.018443 -15.794674 118.563699 -1.883901 9.121469 -17.162304 0.000000 -0.000000 0.000000 11.501753 7.922143 58.708799 14.182466 3.962646 11.694509 10.770836 8.666463 -5.640022 -0.414124 -3.535929 8.137992 1.279135 -2.753135 -11.262507 -15.956512 -40.494955 0.573314 -72.433421 -29.731170 9.522516 77.706503 -68.803637 -47.442170 -48.516023 -2.140171 -1.370226 24.008199 50.107210 15.157071 57.670567 53.831473 5.167142 -149.418953 48.193137 -131.446821 39.547641 44.003164 -50.856411 
0.063155 0.863768 0.584025 51.530343 2.782434 67.156017 16.278904 -5.039556 -73.796363 7.179841 15.095341 123.952219 2.142727 -6.323911 -22.642153 0.000000 -0.000000 0.000000 -17.090440 -4.707927 -64.906676 -13.160526 -15.783099 118.617839 -2.128694 9.240339 -17.423876 0.000000 -0.000000 0.000000 11.618782 8.220850 58.845970 14.237424 3.919968 11.781099 10.809186 8.964585 -5.538848 -0.093124 -3.463276 8.546246 1.548394 -3.330984 -11.793585 -15.085685 -41.483264 0.007357 -72.630835 -30.431688 9.794313 76.673513 -68.292557 -45.611263 -48.930074 -1.759212 -1.303734 23.773120 50.407412 15.493146 57.177969 54.532228 3.822543 -149.536728 47.997386 -130.345480 38.694601 44.829073 -52.854327 
0.063338 0.863774 0.584332 51.556551 2.771495 67.095103 16.161584 -5.116768 -73.653986 7.252493 14.988257 123.883097 2.066427 -6.299935 -22.515268 0.000000 -0.000000 0.000000 -17.140297 -4.717124 -64.803742 -13.145056 -15.736796 118.622479 -2.167919 9.414094 -17.324042 0.000000 -0.000000 0.000000 11.648319 8.397680 58.813236 14.331961 3.754400 12.351968 10.859022 9.091090 -5.331568 0.091466 -3.293905 8.914708 1.710175 -3.704384 -12.342370 -14.439614 -42.083467 -0.793582 -72.402031 -30.961861 9.950751 75.692282 -67.577534 -44.925214 -49.677846 -1.366170 -0.891305 23.791499 50.771726 15.467173 56.643522 54.858248 3.279552 -148.797652 47.975787 -129.617686 39.068275 44.668619 -52.798632 
